<svg width="255" height="254" viewBox="0 0 255 254" fill="none" xmlns="http://www.w3.org/2000/svg">
<path d="M255 127C255 143.678 251.715 160.192 245.333 175.601C238.95 191.009 229.596 205.01 217.803 216.803C206.01 228.596 192.009 237.95 176.601 244.333C161.192 250.715 144.678 254 128 254C111.322 254 94.8075 250.715 79.3992 244.333C63.9908 237.95 49.9905 228.596 38.1974 216.803C26.4044 205.01 17.0496 191.009 10.6673 175.601C4.28495 160.192 0.999999 143.678 1 127L128 127H255Z" fill="url(#paint0_linear_135_5)"/>
<circle cx="127" cy="127" r="125.5" stroke="black" stroke-opacity="0.7" stroke-width="3"/>
<path d="M147.625 127C153.095 127 158.341 129.173 162.209 133.041C166.077 136.909 168.25 142.155 168.25 147.625C168.25 153.095 166.077 158.341 162.209 162.209C158.341 166.077 153.095 168.25 147.625 168.25C142.155 168.25 136.909 166.077 133.041 162.209C129.173 158.341 127 153.095 127 147.625C127 142.155 129.173 136.909 133.041 133.041C136.909 129.173 142.155 127 147.625 127ZM157.548 138.798L142.203 154.146L137.875 148.375C137.577 147.977 137.133 147.714 136.64 147.644C136.148 147.574 135.648 147.702 135.25 148C134.852 148.298 134.589 148.743 134.519 149.235C134.449 149.727 134.577 150.227 134.875 150.625L140.5 158.125C140.661 158.34 140.867 158.518 141.103 158.646C141.339 158.775 141.6 158.851 141.868 158.87C142.137 158.889 142.406 158.85 142.657 158.756C142.909 158.661 143.138 158.514 143.328 158.324L160.203 141.449C160.544 141.095 160.733 140.621 160.729 140.13C160.725 139.638 160.527 139.168 160.18 138.82C159.832 138.473 159.362 138.276 158.87 138.271C158.379 138.267 157.901 138.456 157.548 138.798ZM123.325 145.75H92.3126L91.9301 145.776C91.2242 145.873 90.5814 146.235 90.1317 146.788C89.6821 147.34 89.459 148.043 89.5075 148.754C89.5561 149.465 89.8727 150.131 90.3934 150.618C90.9141 151.104 91.6 151.375 92.3126 151.375H123.535C123.249 149.514 123.177 147.627 123.321 145.75H123.325ZM125.999 136.375H92.3126C91.6 136.375 90.9141 136.104 90.3934 135.618C89.8727 135.131 89.5561 134.465 89.5075 133.754C89.459 133.043 89.6821 132.34 90.1317 131.788C90.5814 131.235 91.2242 130.873 91.9301 130.776L92.3126 130.75H130.038C128.43 132.424 127.073 134.318 125.999 136.375ZM161.688 115.75H92.3126L91.9301 115.776C91.2242 115.873 90.5814 116.235 90.1317 116.788C89.6821 117.34 89.459 118.043 89.5075 118.754C89.5561 119.465 89.8727 120.131 90.3934 120.618C90.9141 121.104 91.6 121.375 92.3126 121.375H161.688L162.07 121.349C162.776 121.252 163.419 120.89 163.868 120.337C164.318 119.785 164.541 119.082 164.493 118.371C164.444 117.66 164.128 116.994 163.607 116.507C163.086 116.021 162.4 115.75 161.688 115.75ZM161.688 100.75H92.3126L91.9301 100.776C91.2242 100.873 90.5814 101.235 90.1317 101.788C89.6821 102.34 89.459 103.043 89.5075 103.754C89.5561 104.465 89.8727 105.131 90.3934 105.618C90.9141 106.104 91.6 106.375 92.3126 106.375H161.688L162.07 106.349C162.776 106.252 163.419 105.89 163.868 105.337C164.318 104.785 164.541 104.082 164.493 103.371C164.444 102.66 164.128 101.994 163.607 101.507C163.086 101.021 162.4 100.75 161.688 100.75Z" fill="black"/>
<path d="M96.8267 221H94.4972L99.7315 206.455H102.267L107.501 221H105.172L101.06 209.097H100.946L96.8267 221ZM97.2173 215.304H104.774V217.151H97.2173V215.304ZM113.851 221.22C112.795 221.22 111.886 220.981 111.124 220.503C110.366 220.02 109.784 219.355 109.376 218.507C108.969 217.66 108.766 216.689 108.766 215.595C108.766 214.487 108.974 213.509 109.391 212.662C109.807 211.81 110.394 211.144 111.152 210.666C111.91 210.188 112.802 209.949 113.83 209.949C114.658 209.949 115.397 210.103 116.045 210.411C116.694 210.714 117.217 211.14 117.615 211.689C118.018 212.238 118.257 212.88 118.332 213.614H116.266C116.152 213.102 115.892 212.662 115.484 212.293C115.082 211.923 114.542 211.739 113.865 211.739C113.273 211.739 112.755 211.895 112.31 212.207C111.869 212.515 111.526 212.955 111.28 213.528C111.034 214.097 110.911 214.769 110.911 215.545C110.911 216.341 111.031 217.027 111.273 217.605C111.514 218.183 111.855 218.63 112.295 218.947C112.741 219.265 113.264 219.423 113.865 219.423C114.268 219.423 114.632 219.35 114.959 219.203C115.29 219.052 115.567 218.836 115.79 218.557C116.017 218.277 116.176 217.941 116.266 217.548H118.332C118.257 218.254 118.027 218.884 117.643 219.438C117.26 219.991 116.746 220.427 116.102 220.744C115.463 221.062 114.713 221.22 113.851 221.22ZM125.199 221.22C124.143 221.22 123.234 220.981 122.471 220.503C121.714 220.02 121.131 219.355 120.724 218.507C120.317 217.66 120.113 216.689 120.113 215.595C120.113 214.487 120.322 213.509 120.738 212.662C121.155 211.81 121.742 211.144 122.5 210.666C123.257 210.188 124.15 209.949 125.177 209.949C126.006 209.949 126.744 210.103 127.393 210.411C128.042 210.714 128.565 211.14 128.963 211.689C129.365 212.238 129.604 212.88 129.68 213.614H127.613C127.5 213.102 127.239 212.662 126.832 212.293C126.43 211.923 125.89 211.739 125.213 211.739C124.621 211.739 124.102 211.895 123.657 212.207C123.217 212.515 122.874 212.955 122.627 213.528C122.381 214.097 122.258 214.769 122.258 215.545C122.258 216.341 122.379 217.027 122.62 217.605C122.862 218.183 123.203 218.63 123.643 218.947C124.088 219.265 124.611 219.423 125.213 219.423C125.615 219.423 125.98 219.35 126.306 219.203C126.638 219.052 126.915 218.836 127.137 218.557C127.365 218.277 127.523 217.941 127.613 217.548H129.68C129.604 218.254 129.375 218.884 128.991 219.438C128.608 219.991 128.094 220.427 127.45 220.744C126.811 221.062 126.06 221.22 125.199 221.22ZM136.653 221.22C135.578 221.22 134.652 220.991 133.876 220.531C133.104 220.067 132.507 219.416 132.086 218.578C131.669 217.735 131.461 216.748 131.461 215.616C131.461 214.499 131.669 213.514 132.086 212.662C132.507 211.81 133.094 211.144 133.847 210.666C134.605 210.188 135.49 209.949 136.504 209.949C137.119 209.949 137.716 210.051 138.293 210.254C138.871 210.458 139.389 210.777 139.849 211.213C140.308 211.649 140.67 212.214 140.935 212.911C141.201 213.602 141.333 214.442 141.333 215.432V216.185H132.661V214.594H139.252C139.252 214.035 139.138 213.54 138.911 213.109C138.684 212.674 138.364 212.33 137.952 212.08C137.545 211.829 137.067 211.703 136.518 211.703C135.921 211.703 135.4 211.85 134.955 212.143C134.515 212.432 134.174 212.811 133.933 213.28C133.696 213.744 133.577 214.248 133.577 214.793V216.036C133.577 216.765 133.705 217.385 133.961 217.896C134.221 218.408 134.584 218.798 135.048 219.068C135.512 219.333 136.054 219.466 136.674 219.466C137.076 219.466 137.443 219.409 137.775 219.295C138.106 219.177 138.393 219.002 138.634 218.77C138.876 218.538 139.06 218.251 139.188 217.911L141.198 218.273C141.037 218.865 140.748 219.383 140.332 219.828C139.92 220.268 139.401 220.612 138.776 220.858C138.156 221.099 137.448 221.22 136.653 221.22ZM143.689 225.091V210.091H145.763V211.859H145.941C146.064 211.632 146.241 211.369 146.473 211.071C146.705 210.773 147.027 210.512 147.439 210.29C147.851 210.062 148.396 209.949 149.073 209.949C149.953 209.949 150.739 210.171 151.431 210.616C152.122 211.062 152.664 211.703 153.057 212.541C153.455 213.379 153.654 214.388 153.654 215.567C153.654 216.746 153.457 217.757 153.064 218.599C152.671 219.437 152.132 220.084 151.445 220.538C150.758 220.988 149.975 221.213 149.094 221.213C148.431 221.213 147.889 221.102 147.468 220.879C147.051 220.657 146.724 220.396 146.488 220.098C146.251 219.8 146.069 219.535 145.941 219.303H145.813V225.091H143.689ZM145.77 215.545C145.77 216.312 145.882 216.985 146.104 217.562C146.327 218.14 146.649 218.592 147.07 218.919C147.491 219.241 148.007 219.402 148.618 219.402C149.253 219.402 149.783 219.234 150.209 218.898C150.635 218.557 150.957 218.095 151.175 217.513C151.398 216.93 151.509 216.275 151.509 215.545C151.509 214.826 151.4 214.179 151.182 213.607C150.969 213.034 150.647 212.581 150.216 212.25C149.79 211.919 149.257 211.753 148.618 211.753C148.003 211.753 147.482 211.911 147.056 212.229C146.634 212.546 146.315 212.989 146.097 213.557C145.879 214.125 145.77 214.788 145.77 215.545ZM161.125 210.091V211.795H155.167V210.091H161.125ZM156.765 207.477H158.888V217.797C158.888 218.209 158.95 218.519 159.073 218.727C159.196 218.931 159.355 219.071 159.549 219.146C159.748 219.217 159.963 219.253 160.195 219.253C160.365 219.253 160.515 219.241 160.642 219.217C160.77 219.194 160.87 219.175 160.941 219.161L161.324 220.915C161.201 220.962 161.026 221.009 160.799 221.057C160.571 221.109 160.287 221.137 159.946 221.142C159.388 221.152 158.867 221.052 158.384 220.844C157.901 220.635 157.51 220.313 157.212 219.878C156.914 219.442 156.765 218.895 156.765 218.237V207.477Z" fill="black"/>
<defs>
<linearGradient id="paint0_linear_135_5" x1="128" y1="55.5" x2="128" y2="274" gradientUnits="userSpaceOnUse">
<stop stop-color="#6AA8F1"/>
<stop offset="1" stop-color="#C6DAF0" stop-opacity="0"/>
</linearGradient>
</defs>
</svg>
