<svg width="36" height="51" viewBox="0 0 36 51" fill="none" xmlns="http://www.w3.org/2000/svg">
<g filter="url(#filter0_dd_210_5051)">
<path d="M22 30.2857V28.3572C22 26.0268 24.6283 23.8226 26.3333 22.25C28.7367 20.0346 30 17.0582 30 13.5715C30 7.1429 24.6892 2.00004 18 2.00004C16.4229 1.9958 14.8605 2.29221 13.4026 2.87223C11.9447 3.45224 10.6201 4.30442 9.50495 5.37977C8.38977 6.45512 7.50603 7.73243 6.90453 9.13826C6.30303 10.5441 5.99565 12.0507 6.00005 13.5715C6.00005 16.9336 7.31754 20.1117 9.66671 22.25C11.3625 23.7937 14 26.0027 14 28.3572V30.2857M15.3334 38H20.6667M14 34.1429H22M18 30.2857V20" stroke="black" stroke-width="3" stroke-linecap="round" stroke-linejoin="round"/>
<path d="M20.6667 18C20.6667 18 18.7798 20.6667 17.3333 20.6667C15.8868 20.6667 14 18 14 18" stroke="#3178CA" stroke-width="3" stroke-linecap="round" stroke-linejoin="round"/>
</g>
<defs>
<filter id="filter0_dd_210_5051" x="0.5" y="0.5" width="35" height="50" filterUnits="userSpaceOnUse" color-interpolation-filters="sRGB">
<feFlood flood-opacity="0" result="BackgroundImageFix"/>
<feColorMatrix in="SourceAlpha" type="matrix" values="0 0 0 0 0 0 0 0 0 0 0 0 0 0 0 0 0 0 127 0" result="hardAlpha"/>
<feOffset dy="7"/>
<feGaussianBlur stdDeviation="2"/>
<feComposite in2="hardAlpha" operator="out"/>
<feColorMatrix type="matrix" values="0 0 0 0 0 0 0 0 0 0 0 0 0 0 0 0 0 0 0.25 0"/>
<feBlend mode="normal" in2="BackgroundImageFix" result="effect1_dropShadow_210_5051"/>
<feColorMatrix in="SourceAlpha" type="matrix" values="0 0 0 0 0 0 0 0 0 0 0 0 0 0 0 0 0 0 127 0" result="hardAlpha"/>
<feOffset dy="4"/>
<feGaussianBlur stdDeviation="2"/>
<feComposite in2="hardAlpha" operator="out"/>
<feColorMatrix type="matrix" values="0 0 0 0 0.192829 0 0 0 0 0.468654 0 0 0 0 0.792448 0 0 0 1 0"/>
<feBlend mode="normal" in2="effect1_dropShadow_210_5051" result="effect2_dropShadow_210_5051"/>
<feBlend mode="normal" in="SourceGraphic" in2="effect2_dropShadow_210_5051" result="shape"/>
</filter>
</defs>
</svg>
