<svg width="42" height="36" viewBox="0 0 42 36" fill="none" xmlns="http://www.w3.org/2000/svg">
<g filter="url(#filter0_d_210_5079)">
<path d="M38 28.7273C38 29.0648 37.8622 29.3885 37.617 29.6272C37.3717 29.8659 37.0391 30 36.6923 30H5.30769C4.96087 30 4.62825 29.8659 4.38301 29.6272C4.13777 29.3885 4 29.0648 4 28.7273C4 28.3897 4.13777 28.066 4.38301 27.8273C4.62825 27.5886 4.96087 27.4545 5.30769 27.4545H36.6923C37.0391 27.4545 37.3717 27.5886 37.617 27.8273C37.8622 28.066 38 28.3897 38 28.7273ZM38 4.54545V22.3636C38 23.0387 37.7244 23.6862 37.234 24.1635C36.7435 24.6409 36.0783 24.9091 35.3846 24.9091H6.61538C5.92174 24.9091 5.25651 24.6409 4.76603 24.1635C4.27555 23.6862 4 23.0387 4 22.3636V4.54545C4 3.87036 4.27555 3.22291 4.76603 2.74555C5.25651 2.26818 5.92174 2 6.61538 2H35.3846C36.0783 2 36.7435 2.26818 37.234 2.74555C37.7244 3.22291 38 3.87036 38 4.54545ZM26.8846 13.4545C26.8845 13.2403 26.8289 13.0296 26.7229 12.8419C26.6169 12.6542 26.4639 12.4955 26.2782 12.3807L19.0859 7.92614C18.8882 7.8039 18.6604 7.73558 18.4263 7.72831C18.1922 7.72105 17.9604 7.77511 17.7551 7.88485C17.5498 7.99458 17.3786 8.15596 17.2593 8.35213C17.14 8.5483 17.077 8.77205 17.0769 9V17.9091C17.077 18.137 17.14 18.3608 17.2593 18.557C17.3786 18.7531 17.5498 18.9145 17.7551 19.0242C17.9604 19.134 18.1922 19.188 18.4263 19.1808C18.6604 19.1735 18.8882 19.1052 19.0859 18.983L26.2782 14.5284C26.4639 14.4135 26.6169 14.2549 26.7229 14.0672C26.8289 13.8795 26.8845 13.6687 26.8846 13.4545Z" fill="black"/>
</g>
<defs>
<filter id="filter0_d_210_5079" x="0" y="0" width="42" height="36" filterUnits="userSpaceOnUse" color-interpolation-filters="sRGB">
<feFlood flood-opacity="0" result="BackgroundImageFix"/>
<feColorMatrix in="SourceAlpha" type="matrix" values="0 0 0 0 0 0 0 0 0 0 0 0 0 0 0 0 0 0 127 0" result="hardAlpha"/>
<feOffset dy="2"/>
<feGaussianBlur stdDeviation="2"/>
<feComposite in2="hardAlpha" operator="out"/>
<feColorMatrix type="matrix" values="0 0 0 0 0.192829 0 0 0 0 0.468654 0 0 0 0 0.792448 0 0 0 1 0"/>
<feBlend mode="normal" in2="BackgroundImageFix" result="effect1_dropShadow_210_5079"/>
<feBlend mode="normal" in="SourceGraphic" in2="effect1_dropShadow_210_5079" result="shape"/>
</filter>
</defs>
</svg>
