<svg width="41" height="41" viewBox="0 0 41 41" fill="none" xmlns="http://www.w3.org/2000/svg">
<g filter="url(#filter0_d_210_5072)">
<path d="M4 2V35H37V2H4ZM33.3333 31.3333H7.66667V9.33333H33.3333V31.3333ZM23.25 20.3333C23.25 21.855 22.0217 23.0833 20.5 23.0833C18.9783 23.0833 17.75 21.855 17.75 20.3333C17.75 18.8117 18.9783 17.5833 20.5 17.5833C22.0217 17.5833 23.25 18.8117 23.25 20.3333ZM20.5 13C15.495 13 11.2233 16.0433 9.5 20.3333C11.2233 24.6233 15.495 27.6667 20.5 27.6667C25.505 27.6667 29.7767 24.6233 31.5 20.3333C29.7767 16.0433 25.505 13 20.5 13ZM20.5 24.9167C19.2844 24.9167 18.1186 24.4338 17.2591 23.5742C16.3996 22.7147 15.9167 21.5489 15.9167 20.3333C15.9167 19.1178 16.3996 17.952 17.2591 17.0924C18.1186 16.2329 19.2844 15.75 20.5 15.75C21.7156 15.75 22.8814 16.2329 23.7409 17.0924C24.6004 17.952 25.0833 19.1178 25.0833 20.3333C25.0833 21.5489 24.6004 22.7147 23.7409 23.5742C22.8814 24.4338 21.7156 24.9167 20.5 24.9167Z" fill="black"/>
</g>
<defs>
<filter id="filter0_d_210_5072" x="0" y="0" width="41" height="41" filterUnits="userSpaceOnUse" color-interpolation-filters="sRGB">
<feFlood flood-opacity="0" result="BackgroundImageFix"/>
<feColorMatrix in="SourceAlpha" type="matrix" values="0 0 0 0 0 0 0 0 0 0 0 0 0 0 0 0 0 0 127 0" result="hardAlpha"/>
<feOffset dy="2"/>
<feGaussianBlur stdDeviation="2"/>
<feComposite in2="hardAlpha" operator="out"/>
<feColorMatrix type="matrix" values="0 0 0 0 0.192829 0 0 0 0 0.468654 0 0 0 0 0.792448 0 0 0 1 0"/>
<feBlend mode="normal" in2="BackgroundImageFix" result="effect1_dropShadow_210_5072"/>
<feBlend mode="normal" in="SourceGraphic" in2="effect1_dropShadow_210_5072" result="shape"/>
</filter>
</defs>
</svg>
