<svg width="40" height="45" viewBox="0 0 40 45" fill="none" xmlns="http://www.w3.org/2000/svg">
<g filter="url(#filter0_d_210_5078)">
<path d="M27.1021 14.5625H17.8613V12.25H27.1021V14.5625ZM17.8613 21.5H27.1021V23.8125H17.8613V21.5ZM20.2256 37.6875L22.5358 40H4V3H31.7225V26.1792L29.4123 28.4917V5.3125H6.31021V37.6875H20.2256ZM16.3632 10.7505L12.0857 15.0322L8.96334 11.9067L10.5877 10.2808L12.0857 11.7803L14.7389 9.12451L16.3632 10.7505ZM16.3632 20.0005L12.0857 24.2822L8.96334 21.1567L10.5877 19.5308L12.0857 21.0303L14.7389 18.3745L16.3632 20.0005ZM12.0857 30.2803L14.7389 27.6245L16.3632 29.2505L12.0857 33.5322L8.96334 30.4067L10.5877 28.7808L12.0857 30.2803ZM36 29.2505L25.947 39.3315L21.0919 34.4536L22.7163 32.8276L25.947 36.0435L34.3756 27.6245L36 29.2505Z" fill="black"/>
</g>
<defs>
<filter id="filter0_d_210_5078" x="0" y="0" width="40" height="45" filterUnits="userSpaceOnUse" color-interpolation-filters="sRGB">
<feFlood flood-opacity="0" result="BackgroundImageFix"/>
<feColorMatrix in="SourceAlpha" type="matrix" values="0 0 0 0 0 0 0 0 0 0 0 0 0 0 0 0 0 0 127 0" result="hardAlpha"/>
<feOffset dy="1"/>
<feGaussianBlur stdDeviation="2"/>
<feComposite in2="hardAlpha" operator="out"/>
<feColorMatrix type="matrix" values="0 0 0 0 0.192829 0 0 0 0 0.468654 0 0 0 0 0.792448 0 0 0 1 0"/>
<feBlend mode="normal" in2="BackgroundImageFix" result="effect1_dropShadow_210_5078"/>
<feBlend mode="normal" in="SourceGraphic" in2="effect1_dropShadow_210_5078" result="shape"/>
</filter>
</defs>
</svg>
