<svg width="254" height="254" viewBox="0 0 254 254" fill="none" xmlns="http://www.w3.org/2000/svg">
<circle cx="127" cy="127" r="125.5" stroke="black" stroke-opacity="0.7" stroke-width="3"/>
<path d="M254 127C254 143.678 250.715 160.192 244.333 175.601C237.95 191.009 228.596 205.01 216.803 216.803C205.01 228.596 191.009 237.95 175.601 244.333C160.192 250.715 143.678 254 127 254C110.322 254 93.8075 250.715 78.3992 244.333C62.9908 237.95 48.9905 228.596 37.1974 216.803C25.4044 205.01 16.0496 191.009 9.6673 175.601C3.28495 160.192 -1.45803e-06 143.678 0 127L127 127H254Z" fill="url(#paint0_linear_135_2)"/>
<path d="M143.25 99.8752H133.842C132.6 96.4435 129.346 93.9585 125.5 93.9585C121.654 93.9585 118.4 96.4435 117.157 99.8752H107.75C104.496 99.8752 101.833 102.538 101.833 105.792V150.167C101.833 153.421 104.496 156.083 107.75 156.083H125.825C124.075 154.385 122.651 152.379 121.625 150.167H107.75V105.792H113.667V108.75C113.667 112.004 116.329 114.667 119.583 114.667H131.417C134.671 114.667 137.333 112.004 137.333 108.75V105.792H143.25V120.82C145.35 121.116 147.332 121.737 149.167 122.595V105.792C149.167 102.538 146.504 99.8752 143.25 99.8752ZM125.5 105.792C123.873 105.792 122.542 104.461 122.542 102.833C122.542 101.206 123.873 99.8752 125.5 99.8752C127.127 99.8752 128.458 101.206 128.458 102.833C128.458 104.461 127.127 105.792 125.5 105.792ZM140.292 126.5C132.127 126.5 125.5 133.127 125.5 141.292C125.5 149.457 132.127 156.083 140.292 156.083C148.457 156.083 155.083 149.457 155.083 141.292C155.083 133.127 148.457 126.5 140.292 126.5ZM144.108 147.208L139.227 142.327C138.951 142.052 138.792 141.681 138.783 141.292V133.926C138.783 133.097 139.434 132.446 140.262 132.446C141.09 132.446 141.741 133.097 141.741 133.926V140.7L146.179 145.138C146.317 145.273 146.427 145.435 146.502 145.613C146.578 145.791 146.617 145.983 146.618 146.176C146.619 146.37 146.582 146.562 146.508 146.741C146.434 146.92 146.326 147.082 146.189 147.219C146.052 147.356 145.89 147.464 145.711 147.538C145.532 147.611 145.34 147.649 145.146 147.648C144.953 147.647 144.761 147.608 144.583 147.532C144.405 147.457 144.243 147.347 144.108 147.208Z" fill="black"/>
<path d="M89.598 221V206.455H94.7827C95.9143 206.455 96.8518 206.661 97.5952 207.072C98.3385 207.484 98.8949 208.048 99.2642 208.763C99.6335 209.473 99.8182 210.273 99.8182 211.163C99.8182 212.058 99.6312 212.863 99.2571 213.578C98.8878 214.288 98.3291 214.852 97.581 215.268C96.8376 215.68 95.9025 215.886 94.7756 215.886H91.2102V214.026H94.5767C95.2917 214.026 95.8717 213.902 96.3168 213.656C96.7618 213.405 97.0885 213.064 97.2969 212.634C97.5052 212.203 97.6094 211.713 97.6094 211.163C97.6094 210.614 97.5052 210.126 97.2969 209.7C97.0885 209.274 96.7595 208.94 96.3097 208.699C95.8646 208.457 95.2775 208.337 94.5483 208.337H91.7926V221H89.598ZM106.786 221.22C105.711 221.22 104.785 220.991 104.009 220.531C103.237 220.067 102.64 219.416 102.219 218.578C101.802 217.735 101.594 216.748 101.594 215.616C101.594 214.499 101.802 213.514 102.219 212.662C102.64 211.81 103.227 211.144 103.98 210.666C104.738 210.188 105.623 209.949 106.636 209.949C107.252 209.949 107.848 210.051 108.426 210.254C109.004 210.458 109.522 210.777 109.982 211.213C110.441 211.649 110.803 212.214 111.068 212.911C111.333 213.602 111.466 214.442 111.466 215.432V216.185H102.794V214.594H109.385C109.385 214.035 109.271 213.54 109.044 213.109C108.817 212.674 108.497 212.33 108.085 212.08C107.678 211.829 107.2 211.703 106.651 211.703C106.054 211.703 105.533 211.85 105.088 212.143C104.648 212.432 104.307 212.811 104.065 213.28C103.829 213.744 103.71 214.248 103.71 214.793V216.036C103.71 216.765 103.838 217.385 104.094 217.896C104.354 218.408 104.716 218.798 105.18 219.068C105.644 219.333 106.187 219.466 106.807 219.466C107.209 219.466 107.576 219.409 107.908 219.295C108.239 219.177 108.526 219.002 108.767 218.77C109.009 218.538 109.193 218.251 109.321 217.911L111.331 218.273C111.17 218.865 110.881 219.383 110.464 219.828C110.053 220.268 109.534 220.612 108.909 220.858C108.289 221.099 107.581 221.22 106.786 221.22ZM115.946 214.523V221H113.822V210.091H115.86V211.866H115.995C116.246 211.289 116.639 210.825 117.174 210.474C117.714 210.124 118.394 209.949 119.213 209.949C119.956 209.949 120.607 210.105 121.166 210.418C121.725 210.725 122.158 211.185 122.466 211.795C122.773 212.406 122.927 213.161 122.927 214.061V221H120.804V214.317C120.804 213.526 120.598 212.908 120.186 212.463C119.774 212.013 119.208 211.788 118.488 211.788C117.996 211.788 117.558 211.895 117.174 212.108C116.796 212.321 116.495 212.634 116.272 213.045C116.055 213.453 115.946 213.945 115.946 214.523ZM129.859 221.213C128.978 221.213 128.192 220.988 127.501 220.538C126.815 220.084 126.275 219.437 125.882 218.599C125.493 217.757 125.299 216.746 125.299 215.567C125.299 214.388 125.496 213.379 125.889 212.541C126.287 211.703 126.831 211.062 127.522 210.616C128.214 210.171 128.997 209.949 129.873 209.949C130.55 209.949 131.095 210.062 131.507 210.29C131.923 210.512 132.245 210.773 132.473 211.071C132.705 211.369 132.885 211.632 133.012 211.859H133.14V206.455H135.264V221H133.19V219.303H133.012C132.885 219.535 132.7 219.8 132.458 220.098C132.222 220.396 131.895 220.657 131.478 220.879C131.062 221.102 130.522 221.213 129.859 221.213ZM130.328 219.402C130.939 219.402 131.455 219.241 131.876 218.919C132.302 218.592 132.624 218.14 132.842 217.562C133.065 216.985 133.176 216.312 133.176 215.545C133.176 214.788 133.067 214.125 132.849 213.557C132.631 212.989 132.312 212.546 131.89 212.229C131.469 211.911 130.948 211.753 130.328 211.753C129.689 211.753 129.156 211.919 128.73 212.25C128.304 212.581 127.982 213.034 127.764 213.607C127.551 214.179 127.444 214.826 127.444 215.545C127.444 216.275 127.553 216.93 127.771 217.513C127.989 218.095 128.311 218.557 128.737 218.898C129.168 219.234 129.698 219.402 130.328 219.402ZM138.295 221V210.091H140.418V221H138.295ZM139.367 208.408C138.998 208.408 138.681 208.285 138.415 208.038C138.155 207.787 138.025 207.489 138.025 207.143C138.025 206.793 138.155 206.495 138.415 206.249C138.681 205.998 138.998 205.872 139.367 205.872C139.737 205.872 140.051 205.998 140.312 206.249C140.577 206.495 140.71 206.793 140.71 207.143C140.71 207.489 140.577 207.787 140.312 208.038C140.051 208.285 139.737 208.408 139.367 208.408ZM145.399 214.523V221H143.275V210.091H145.314V211.866H145.449C145.699 211.289 146.092 210.825 146.627 210.474C147.167 210.124 147.847 209.949 148.666 209.949C149.409 209.949 150.06 210.105 150.619 210.418C151.178 210.725 151.611 211.185 151.919 211.795C152.226 212.406 152.38 213.161 152.38 214.061V221H150.257V214.317C150.257 213.526 150.051 212.908 149.639 212.463C149.227 212.013 148.661 211.788 147.941 211.788C147.449 211.788 147.011 211.895 146.627 212.108C146.249 212.321 145.948 212.634 145.725 213.045C145.508 213.453 145.399 213.945 145.399 214.523ZM159.802 225.318C158.936 225.318 158.19 225.205 157.565 224.977C156.945 224.75 156.438 224.449 156.045 224.075C155.652 223.701 155.359 223.292 155.164 222.847L156.99 222.094C157.118 222.302 157.288 222.522 157.501 222.754C157.719 222.991 158.012 223.192 158.382 223.358C158.756 223.524 159.236 223.607 159.824 223.607C160.628 223.607 161.294 223.41 161.819 223.017C162.345 222.629 162.608 222.009 162.608 221.156V219.011H162.473C162.345 219.243 162.16 219.501 161.919 219.786C161.682 220.07 161.355 220.316 160.939 220.524C160.522 220.732 159.98 220.837 159.312 220.837C158.45 220.837 157.674 220.635 156.983 220.233C156.296 219.826 155.752 219.227 155.349 218.436C154.951 217.641 154.752 216.663 154.752 215.503C154.752 214.343 154.949 213.348 155.342 212.52C155.74 211.691 156.284 211.057 156.975 210.616C157.667 210.171 158.45 209.949 159.326 209.949C160.003 209.949 160.55 210.062 160.967 210.29C161.384 210.512 161.708 210.773 161.94 211.071C162.177 211.369 162.359 211.632 162.487 211.859H162.643V210.091H164.724V221.241C164.724 222.179 164.506 222.948 164.071 223.55C163.635 224.151 163.046 224.596 162.302 224.885C161.564 225.174 160.73 225.318 159.802 225.318ZM159.781 219.075C160.392 219.075 160.908 218.933 161.329 218.649C161.755 218.36 162.077 217.948 162.295 217.413C162.518 216.874 162.629 216.227 162.629 215.474C162.629 214.741 162.52 214.094 162.302 213.536C162.084 212.977 161.765 212.541 161.343 212.229C160.922 211.911 160.401 211.753 159.781 211.753C159.142 211.753 158.609 211.919 158.183 212.25C157.757 212.577 157.435 213.022 157.217 213.585C157.004 214.149 156.897 214.778 156.897 215.474C156.897 216.189 157.006 216.817 157.224 217.357C157.442 217.896 157.764 218.318 158.19 218.621C158.621 218.924 159.151 219.075 159.781 219.075Z" fill="black"/>
<defs>
<linearGradient id="paint0_linear_135_2" x1="127" y1="55.5" x2="127" y2="274" gradientUnits="userSpaceOnUse">
<stop stop-color="#6AA8F1"/>
<stop offset="1" stop-color="#C6DAF0" stop-opacity="0"/>
</linearGradient>
</defs>
</svg>
