<svg width="256" height="254" viewBox="0 0 256 254" fill="none" xmlns="http://www.w3.org/2000/svg">
<path d="M256 127C256 143.678 252.715 160.192 246.333 175.601C239.95 191.009 230.596 205.01 218.803 216.803C207.01 228.596 193.009 237.95 177.601 244.333C162.192 250.715 145.678 254 129 254C112.322 254 95.8075 250.715 80.3992 244.333C64.9908 237.95 50.9905 228.596 39.1974 216.803C27.4044 205.01 18.0496 191.009 11.6673 175.601C5.28495 160.192 2 143.678 2 127L129 127H256Z" fill="url(#paint0_linear_135_6)"/>
<circle cx="127" cy="127" r="125.5" stroke="black" stroke-opacity="0.7" stroke-width="3"/>
<path d="M147.625 127C153.095 127 158.341 129.173 162.209 133.041C166.077 136.909 168.25 142.155 168.25 147.625C168.25 153.095 166.077 158.341 162.209 162.209C158.341 166.077 153.095 168.25 147.625 168.25C142.155 168.25 136.909 166.077 133.041 162.209C129.173 158.341 127 153.095 127 147.625C127 142.155 129.173 136.909 133.041 133.041C136.909 129.173 142.155 127 147.625 127ZM138.34 138.34C137.989 138.692 137.791 139.168 137.791 139.666C137.791 140.163 137.989 140.64 138.34 140.991L144.974 147.629L138.348 154.251C138.173 154.425 138.035 154.632 137.941 154.86C137.846 155.087 137.797 155.331 137.797 155.577C137.797 155.824 137.845 156.068 137.939 156.295C138.034 156.523 138.172 156.73 138.346 156.904C138.52 157.079 138.727 157.217 138.954 157.311C139.182 157.406 139.426 157.455 139.672 157.455C139.918 157.455 140.162 157.407 140.39 157.312C140.618 157.218 140.825 157.08 140.999 156.906L147.625 150.28L154.263 156.914C154.436 157.093 154.642 157.236 154.871 157.334C155.1 157.432 155.346 157.484 155.595 157.486C155.844 157.488 156.091 157.441 156.321 157.347C156.552 157.252 156.761 157.113 156.937 156.937C157.113 156.761 157.252 156.552 157.347 156.321C157.441 156.091 157.488 155.844 157.486 155.595C157.484 155.346 157.432 155.1 157.334 154.871C157.236 154.642 157.093 154.435 156.914 154.263L150.28 147.625L156.921 140.987C157.263 140.634 157.452 140.16 157.448 139.669C157.443 139.177 157.246 138.707 156.899 138.359C156.551 138.011 156.081 137.814 155.589 137.81C155.097 137.806 154.624 137.995 154.27 138.336L147.629 144.974L140.991 138.336C140.64 137.985 140.163 137.787 139.666 137.787C139.169 137.787 138.692 137.985 138.34 138.336V138.34ZM123.321 145.75H92.3126L91.9301 145.776C91.2242 145.873 90.5814 146.235 90.1317 146.788C89.6821 147.34 89.459 148.043 89.5075 148.754C89.5561 149.465 89.8727 150.131 90.3934 150.618C90.9141 151.104 91.6 151.375 92.3126 151.375H123.535C123.249 149.514 123.177 147.627 123.321 145.75ZM125.995 136.375H92.3126C91.6 136.375 90.9141 136.104 90.3934 135.618C89.8727 135.131 89.5561 134.465 89.5075 133.754C89.459 133.043 89.6821 132.34 90.1317 131.788C90.5814 131.235 91.2242 130.873 91.9301 130.776L92.3126 130.75H130.038C128.43 132.424 127.069 134.318 125.995 136.375ZM161.688 115.75H92.3126L91.9301 115.776C91.2242 115.873 90.5814 116.235 90.1317 116.788C89.6821 117.34 89.459 118.043 89.5075 118.754C89.5561 119.465 89.8727 120.131 90.3934 120.618C90.9141 121.104 91.6 121.375 92.3126 121.375H161.688L162.07 121.349C162.776 121.252 163.419 120.89 163.868 120.337C164.318 119.785 164.541 119.082 164.493 118.371C164.444 117.66 164.128 116.994 163.607 116.507C163.086 116.021 162.4 115.75 161.688 115.75ZM161.688 100.75H92.3126L91.9301 100.776C91.2242 100.873 90.5814 101.235 90.1317 101.788C89.6821 102.34 89.459 103.043 89.5075 103.754C89.5561 104.465 89.8727 105.131 90.3934 105.618C90.9141 106.104 91.6 106.375 92.3126 106.375H161.688L162.07 106.349C162.776 106.252 163.419 105.89 163.868 105.337C164.318 104.785 164.541 104.082 164.493 103.371C164.444 102.66 164.128 101.994 163.607 101.507C163.086 101.021 162.4 100.75 161.688 100.75Z" fill="black"/>
<path d="M98.598 221V206.455H103.783C104.91 206.455 105.845 206.649 106.588 207.037C107.336 207.425 107.895 207.963 108.264 208.649C108.634 209.331 108.818 210.119 108.818 211.014C108.818 211.904 108.631 212.688 108.257 213.365C107.888 214.037 107.329 214.561 106.581 214.935C105.838 215.309 104.902 215.496 103.776 215.496H99.848V213.607H103.577C104.287 213.607 104.865 213.505 105.31 213.301C105.759 213.098 106.089 212.802 106.297 212.413C106.505 212.025 106.609 211.559 106.609 211.014C106.609 210.465 106.503 209.989 106.29 209.587C106.081 209.184 105.752 208.876 105.303 208.663C104.857 208.446 104.273 208.337 103.548 208.337H100.793V221H98.598ZM105.778 214.438L109.372 221H106.872L103.349 214.438H105.778ZM115.883 221.22C114.808 221.22 113.883 220.991 113.106 220.531C112.334 220.067 111.738 219.416 111.316 218.578C110.9 217.735 110.691 216.748 110.691 215.616C110.691 214.499 110.9 213.514 111.316 212.662C111.738 211.81 112.325 211.144 113.078 210.666C113.835 210.188 114.721 209.949 115.734 209.949C116.35 209.949 116.946 210.051 117.524 210.254C118.101 210.458 118.62 210.777 119.079 211.213C119.538 211.649 119.901 212.214 120.166 212.911C120.431 213.602 120.564 214.442 120.564 215.432V216.185H111.892V214.594H118.483C118.483 214.035 118.369 213.54 118.142 213.109C117.914 212.674 117.595 212.33 117.183 212.08C116.776 211.829 116.297 211.703 115.748 211.703C115.152 211.703 114.631 211.85 114.186 212.143C113.745 212.432 113.404 212.811 113.163 213.28C112.926 213.744 112.808 214.248 112.808 214.793V216.036C112.808 216.765 112.936 217.385 113.191 217.896C113.452 218.408 113.814 218.798 114.278 219.068C114.742 219.333 115.284 219.466 115.904 219.466C116.307 219.466 116.674 219.409 117.005 219.295C117.337 219.177 117.623 219.002 117.865 218.77C118.106 218.538 118.291 218.251 118.419 217.911L120.429 218.273C120.268 218.865 119.979 219.383 119.562 219.828C119.15 220.268 118.632 220.612 118.007 220.858C117.386 221.099 116.679 221.22 115.883 221.22ZM122.92 210.091H125.043V221.71C125.043 222.439 124.911 223.055 124.646 223.557C124.385 224.059 123.997 224.44 123.481 224.7C122.969 224.961 122.337 225.091 121.585 225.091C121.509 225.091 121.438 225.091 121.371 225.091C121.3 225.091 121.227 225.089 121.151 225.084V223.259C121.218 223.259 121.277 223.259 121.329 223.259C121.376 223.259 121.431 223.259 121.492 223.259C121.994 223.259 122.356 223.124 122.579 222.854C122.806 222.589 122.92 222.203 122.92 221.696V210.091ZM123.971 208.408C123.602 208.408 123.284 208.285 123.019 208.038C122.759 207.787 122.629 207.489 122.629 207.143C122.629 206.793 122.759 206.495 123.019 206.249C123.284 205.998 123.602 205.872 123.971 205.872C124.34 205.872 124.655 205.998 124.915 206.249C125.181 206.495 125.313 206.793 125.313 207.143C125.313 207.489 125.181 207.787 124.915 208.038C124.655 208.285 124.34 208.408 123.971 208.408ZM132.602 221.22C131.527 221.22 130.601 220.991 129.825 220.531C129.053 220.067 128.457 219.416 128.035 218.578C127.618 217.735 127.41 216.748 127.41 215.616C127.41 214.499 127.618 213.514 128.035 212.662C128.457 211.81 129.044 211.144 129.797 210.666C130.554 210.188 131.44 209.949 132.453 209.949C133.068 209.949 133.665 210.051 134.243 210.254C134.82 210.458 135.339 210.777 135.798 211.213C136.257 211.649 136.619 212.214 136.885 212.911C137.15 213.602 137.282 214.442 137.282 215.432V216.185H128.61V214.594H135.201C135.201 214.035 135.088 213.54 134.86 213.109C134.633 212.674 134.314 212.33 133.902 212.08C133.494 211.829 133.016 211.703 132.467 211.703C131.87 211.703 131.35 211.85 130.904 212.143C130.464 212.432 130.123 212.811 129.882 213.28C129.645 213.744 129.527 214.248 129.527 214.793V216.036C129.527 216.765 129.654 217.385 129.91 217.896C130.171 218.408 130.533 218.798 130.997 219.068C131.461 219.333 132.003 219.466 132.623 219.466C133.026 219.466 133.393 219.409 133.724 219.295C134.056 219.177 134.342 219.002 134.583 218.77C134.825 218.538 135.01 218.251 135.137 217.911L137.147 218.273C136.986 218.865 136.698 219.383 136.281 219.828C135.869 220.268 135.35 220.612 134.725 220.858C134.105 221.099 133.397 221.22 132.602 221.22ZM144.234 221.22C143.178 221.22 142.269 220.981 141.506 220.503C140.749 220.02 140.166 219.355 139.759 218.507C139.352 217.66 139.148 216.689 139.148 215.595C139.148 214.487 139.357 213.509 139.773 212.662C140.19 211.81 140.777 211.144 141.535 210.666C142.292 210.188 143.185 209.949 144.212 209.949C145.041 209.949 145.78 210.103 146.428 210.411C147.077 210.714 147.6 211.14 147.998 211.689C148.4 212.238 148.639 212.88 148.715 213.614H146.648C146.535 213.102 146.274 212.662 145.867 212.293C145.465 211.923 144.925 211.739 144.248 211.739C143.656 211.739 143.138 211.895 142.692 212.207C142.252 212.515 141.909 212.955 141.663 213.528C141.416 214.097 141.293 214.769 141.293 215.545C141.293 216.341 141.414 217.027 141.656 217.605C141.897 218.183 142.238 218.63 142.678 218.947C143.123 219.265 143.647 219.423 144.248 219.423C144.65 219.423 145.015 219.35 145.342 219.203C145.673 219.052 145.95 218.836 146.173 218.557C146.4 218.277 146.558 217.941 146.648 217.548H148.715C148.639 218.254 148.41 218.884 148.026 219.438C147.643 219.991 147.129 220.427 146.485 220.744C145.846 221.062 145.095 221.22 144.234 221.22ZM156.078 210.091V211.795H150.12V210.091H156.078ZM151.718 207.477H153.841V217.797C153.841 218.209 153.903 218.519 154.026 218.727C154.149 218.931 154.308 219.071 154.502 219.146C154.701 219.217 154.916 219.253 155.148 219.253C155.319 219.253 155.468 219.241 155.596 219.217C155.723 219.194 155.823 219.175 155.894 219.161L156.277 220.915C156.154 220.962 155.979 221.009 155.752 221.057C155.525 221.109 155.24 221.137 154.9 221.142C154.341 221.152 153.82 221.052 153.337 220.844C152.854 220.635 152.463 220.313 152.165 219.878C151.867 219.442 151.718 218.895 151.718 218.237V207.477Z" fill="black"/>
<defs>
<linearGradient id="paint0_linear_135_6" x1="129" y1="55.5" x2="129" y2="274" gradientUnits="userSpaceOnUse">
<stop stop-color="#6AA8F1"/>
<stop offset="1" stop-color="#C6DAF0" stop-opacity="0"/>
</linearGradient>
</defs>
</svg>
